<svg width="18" height="18" viewBox="0 0 18 18" fill="none" xmlns="http://www.w3.org/2000/svg">
<path d="M9 10.125C8.70163 10.125 8.41548 10.0065 8.2045 9.7955C7.99353 9.58453 7.875 9.29838 7.875 9.00001C7.875 8.70164 7.99353 8.41549 8.2045 8.20451C8.41548 7.99354 8.70163 7.87501 9 7.87501C9.29837 7.87501 9.58452 7.99354 9.7955 8.20451C10.0065 8.41549 10.125 8.70164 10.125 9.00001C10.125 9.29838 10.0065 9.58453 9.7955 9.7955C9.58452 10.0065 9.29837 10.125 9 10.125ZM8.604 12.3705C8.73525 12.528 8.86725 12.681 9 12.8273C9.13275 12.681 9.26475 12.5288 9.396 12.3705C9.13203 12.3761 8.86797 12.3761 8.604 12.3705ZM7.10775 12.2768C6.5318 12.2168 5.95965 12.1247 5.394 12.0008C5.33775 12.2633 5.295 12.5183 5.2665 12.7628C5.124 13.95 5.32275 14.6715 5.625 14.8455C5.92725 15.0203 6.651 14.8313 7.60875 14.115C7.806 13.9673 8.00475 13.803 8.20425 13.6238C7.81387 13.1956 7.4478 12.7459 7.10775 12.2768ZM12.606 12.0008C12.0683 12.1208 11.4937 12.2138 10.8923 12.2768C10.5522 12.7459 10.1861 13.1956 9.79575 13.6238C9.99525 13.8038 10.194 13.9673 10.3912 14.115C11.349 14.8313 12.0728 15.0203 12.375 14.8455C12.6772 14.6715 12.8752 13.95 12.7343 12.7628C12.7033 12.507 12.6608 12.2527 12.6068 12.0008H12.606ZM13.6935 11.7105C14.1262 13.6898 13.899 15.2655 12.9375 15.8205C11.976 16.3755 10.4978 15.7845 9 14.4203C7.50225 15.7845 6.024 16.3748 5.0625 15.8198C4.101 15.2648 3.87375 13.6898 4.30575 11.7098C2.37525 11.0955 1.125 10.11 1.125 9.00001C1.125 7.89001 2.37525 6.90526 4.30575 6.28951C3.87375 4.31026 4.101 2.73451 5.0625 2.17951C6.024 1.62451 7.50225 2.21551 9 3.57976C10.4978 2.21551 11.976 1.62526 12.9375 2.18026C13.899 2.73526 14.1263 4.31026 13.6943 6.29026C15.6248 6.90451 16.875 7.89001 16.875 9.00001C16.875 10.11 15.6248 11.0948 13.6943 11.7105H13.6935ZM8.2035 4.37626C8.01277 4.20361 7.81432 4.0397 7.60875 3.88501C6.651 3.16876 5.92725 2.97976 5.625 3.15451C5.32275 3.32851 5.12475 4.05001 5.26575 5.23726C5.29575 5.48251 5.33775 5.73676 5.39325 5.99926C5.95915 5.87531 6.53154 5.78316 7.10775 5.72326C7.464 5.23351 7.8315 4.78276 8.20425 4.37626H8.2035ZM10.8923 5.72326C11.4937 5.78626 12.0683 5.88001 12.606 5.99926C12.6623 5.73676 12.705 5.48176 12.7335 5.23726C12.876 4.05001 12.6772 3.32851 12.375 3.15451C12.0728 2.97976 11.349 3.16876 10.3912 3.88501C10.1854 4.03968 9.98673 4.2036 9.79575 4.37626C10.1685 4.78276 10.536 5.23351 10.8923 5.72326ZM9.396 5.62951C9.26475 5.47201 9.13275 5.31901 9 5.17276C8.86725 5.31901 8.73525 5.47126 8.604 5.62951C8.86797 5.62391 9.13203 5.62391 9.396 5.62951ZM6.279 11.028C6.14217 10.8023 6.01014 10.5738 5.883 10.3425C5.81175 10.5353 5.74575 10.725 5.68575 10.9133C5.8785 10.9553 6.0765 10.9935 6.27825 11.028H6.279ZM7.728 11.2035C8.57483 11.2664 9.42517 11.2664 10.272 11.2035C10.7499 10.5015 11.1751 9.76495 11.544 9.00001C11.1751 8.23507 10.7499 7.49855 10.272 6.79651C9.42517 6.73361 8.57483 6.73361 7.728 6.79651C7.2501 7.49855 6.82493 8.23507 6.456 9.00001C6.82493 9.76495 7.2501 10.5015 7.728 11.2035ZM12.117 7.65751C12.1883 7.46476 12.2543 7.27501 12.3143 7.08676C12.1176 7.04409 11.9201 7.00583 11.7218 6.97201C11.8583 7.19769 11.9901 7.42624 12.117 7.65751ZM4.5975 7.37776C4.3425 7.46026 4.101 7.55026 3.8745 7.64776C2.77575 8.11876 2.25 8.65126 2.25 9.00001C2.25 9.34876 2.775 9.88126 3.8745 10.3523C4.101 10.4498 4.3425 10.5398 4.5975 10.6223C4.764 10.0973 4.97025 9.55276 5.21625 9.00001C4.97987 8.47124 4.77329 7.92964 4.5975 7.37776ZM5.685 7.08676C5.74575 7.27426 5.81175 7.46476 5.883 7.65676C6.01015 7.42574 6.14218 7.19744 6.279 6.97201C6.0765 7.00651 5.8785 7.04476 5.68575 7.08676H5.685ZM13.4025 10.6223C13.6575 10.5398 13.899 10.4498 14.1255 10.3523C15.2242 9.88126 15.75 9.34876 15.75 9.00001C15.75 8.65126 15.225 8.11876 14.1255 7.64776C13.8887 7.54688 13.6475 7.45679 13.4025 7.37776C13.236 7.90276 13.0297 8.44726 12.7838 9.00001C13.0297 9.55276 13.236 10.0965 13.4025 10.6223ZM12.315 10.9133C12.2543 10.7258 12.1883 10.5353 12.117 10.3433C11.9899 10.5743 11.8578 10.8026 11.721 11.028C11.9235 10.9935 12.1215 10.9553 12.3143 10.9133H12.315Z" fill="black"/>
</svg>
