<svg width="44" height="51" viewBox="0 0 44 51" fill="none" xmlns="http://www.w3.org/2000/svg">
<path d="M18.8324 0C17.1717 0.0132202 15.5832 0.680516 14.4112 1.8572C13.2392 3.03389 12.5783 4.62511 12.5717 6.28586H9.42878C7.36388 6.28586 5.72641 6.47443 4.34667 6.99301C2.96692 7.50845 1.86376 8.44191 1.21003 9.62679C-0.0942878 11.9903 0.0471439 14.8849 0 18.8387V34.5911C0.0471439 38.5449 -0.0942878 41.4395 1.21003 43.8061C1.86376 44.9879 2.97007 45.9213 4.34667 46.4399C5.72641 46.9553 7.36388 47.1439 9.42878 47.1439H19.2756C19.3416 46.9868 19.373 46.8233 19.461 46.6725L20.9759 44.001H9.42878C7.56817 44.001 6.267 43.803 5.45298 43.4981C4.63582 43.1901 4.28381 42.8601 3.96638 42.2818C3.3315 41.1315 3.19007 38.5292 3.14293 34.5722V18.8576C3.19007 14.9006 3.3315 12.2983 3.96638 11.148C4.28381 10.5697 4.63582 10.2365 5.45298 9.93165C6.27014 9.62365 7.56817 9.42878 9.42878 9.42878V12.5686H28.2864V9.42878C30.1501 9.42878 31.4481 9.62679 32.2653 9.93165C33.0825 10.2397 33.4313 10.5697 33.7488 11.148C34.3836 12.2983 34.5251 14.9006 34.5722 18.8576V27.7583C35.5465 28.1198 36.4014 28.7735 36.9357 29.707V29.7101L37.7151 31.0867V18.8387C37.668 14.8849 37.8126 11.9903 36.5051 9.62365C35.8064 8.40102 34.6941 7.46811 33.3685 6.99301C31.9919 6.47443 30.3513 6.28586 28.2864 6.28586H25.1309C25.1243 4.62511 24.4634 3.03389 23.2914 1.8572C22.1194 0.680516 20.5308 0.0132202 18.8701 0L18.8324 0ZM18.8639 3.14293C20.6207 3.14293 22.0068 4.5321 22.0068 6.28586C22.011 6.69976 21.9326 7.11034 21.7761 7.49356C21.6196 7.87677 21.3883 8.22492 21.0956 8.51761C20.8029 8.8103 20.4548 9.04164 20.0716 9.1981C19.6883 9.35456 19.2778 9.43299 18.8639 9.42878C18.2442 9.43708 17.6364 9.25865 17.1195 8.91671C16.6027 8.57476 16.2008 8.08515 15.9661 7.5116C15.805 7.12308 15.7227 6.70643 15.7241 6.28586C15.7241 4.5321 17.1101 3.14293 18.867 3.14293H18.8639ZM9.42878 18.8576V22.0005H28.3241V18.8576H9.42878ZM9.42878 25.1434V28.2864H28.3241V25.1434H9.42878ZM9.39735 31.4293V34.5722H18.8261V31.4293H9.39735Z" fill="#F9C549"/>
<path fill-rule="evenodd" clip-rule="evenodd" d="M32.9379 30.5775C32.7067 30.5896 32.4821 30.6592 32.2846 30.7799C32.087 30.9006 31.9227 31.0687 31.8064 31.269L22.1859 48.2314C22.0665 48.4402 22.004 48.6767 22.0046 48.9172C22.0053 49.1577 22.0691 49.3939 22.1898 49.602C22.3104 49.8102 22.4835 49.983 22.6919 50.1031C22.9003 50.2233 23.1366 50.2867 23.3771 50.2868H42.6275C42.8681 50.2867 43.1044 50.2233 43.3127 50.1031C43.5211 49.983 43.6943 49.8102 43.8149 49.602C43.9355 49.3939 43.9993 49.1577 44 48.9172C44.0007 48.6767 43.9382 48.4402 43.8187 48.2314L34.2045 31.269C34.0772 31.0493 33.8921 30.8686 33.6694 30.7467C33.4466 30.6248 33.1947 30.5663 32.941 30.5775H32.9379ZM31.4293 34.5722H34.5722V35.1002C34.5722 36.1939 34.5219 37.1965 34.4245 38.108C34.3302 39.0194 34.2076 39.934 34.0631 40.858H31.9699C31.8075 39.9461 31.6765 39.0289 31.577 38.108C31.4752 37.1087 31.4259 36.1047 31.4293 35.1002V34.5722ZM33.0008 44.001C33.4175 44.001 33.8172 44.1665 34.1119 44.4612C34.4067 44.756 34.5722 45.1557 34.5722 45.5724C34.5722 45.9892 34.4067 46.3889 34.1119 46.6836C33.8172 46.9783 33.4175 47.1439 33.0008 47.1439C32.584 47.1439 32.1843 46.9783 31.8896 46.6836C31.5949 46.3889 31.4293 45.9892 31.4293 45.5724C31.4293 45.1557 31.5949 44.756 31.8896 44.4612C32.1843 44.1665 32.584 44.001 33.0008 44.001Z" fill="#F9C549"/>
</svg>
