<svg width="44" height="41" viewBox="0 0 44 41" fill="none" xmlns="http://www.w3.org/2000/svg">
<path d="M13.7371 24.0657C14.3224 24.0657 14.813 23.8678 15.2089 23.4718C15.6049 23.0759 15.8028 22.5853 15.8028 22C15.8028 21.4147 15.6049 20.9241 15.2089 20.5282C14.813 20.1322 14.3224 19.9343 13.7371 19.9343C13.1518 19.9343 12.6612 20.1322 12.2653 20.5282C11.8693 20.9241 11.6714 21.4147 11.6714 22C11.6714 22.5853 11.8693 23.0759 12.2653 23.4718C12.6612 23.8678 13.1518 24.0657 13.7371 24.0657ZM22 24.0657C22.5853 24.0657 23.0759 23.8678 23.4718 23.4718C23.8678 23.0759 24.0657 22.5853 24.0657 22C24.0657 21.4147 23.8678 20.9241 23.4718 20.5282C23.0759 20.1322 22.5853 19.9343 22 19.9343C21.4147 19.9343 20.9241 20.1322 20.5282 20.5282C20.1322 20.9241 19.9343 21.4147 19.9343 22C19.9343 22.5853 20.1322 23.0759 20.5282 23.4718C20.9241 23.8678 21.4147 24.0657 22 24.0657ZM30.2629 24.0657C30.8482 24.0657 31.3388 23.8678 31.7347 23.4718C32.1307 23.0759 32.3286 22.5853 32.3286 22C32.3286 21.4147 32.1307 20.9241 31.7347 20.5282C31.3388 20.1322 30.8482 19.9343 30.2629 19.9343C29.6776 19.9343 29.187 20.1322 28.7911 20.5282C28.3951 20.9241 28.1972 21.4147 28.1972 22C28.1972 22.5853 28.3951 23.0759 28.7911 23.4718C29.187 23.8678 29.6776 24.0657 30.2629 24.0657ZM22 40.5916C19.4178 40.5916 16.9992 40.1009 14.7441 39.1197C12.489 38.1385 10.5266 36.813 8.85681 35.1432C7.18701 33.4734 5.8615 31.511 4.88028 29.2559C3.89906 27.0008 3.40845 24.5822 3.40845 22C3.40845 19.4178 3.89906 16.9992 4.88028 14.7441C5.8615 12.489 7.18701 10.5266 8.85681 8.85681C10.5266 7.18701 12.489 5.8615 14.7441 4.88028C16.9992 3.89906 19.4178 3.40845 22 3.40845C24.5822 3.40845 27.0008 3.89906 29.2559 4.88028C31.511 5.8615 33.4734 7.18701 35.1432 8.85681C36.813 10.5266 38.1385 12.489 39.1197 14.7441C40.1009 16.9992 40.5915 19.4178 40.5915 22C40.5915 24.5822 40.1009 27.0008 39.1197 29.2559C38.1385 31.511 36.813 33.4734 35.1432 35.1432C33.4734 36.813 31.511 38.1385 29.2559 39.1197C27.0008 40.1009 24.5822 40.5916 22 40.5916ZM8.77934 0L11.6714 2.89202L2.89202 11.6714L0 8.77934L8.77934 0ZM35.2207 0L44 8.77934L41.108 11.6714L32.3286 2.89202L35.2207 0Z" fill="#FF5E5E"/>
</svg>
