<svg width="47" height="47" viewBox="0 0 47 47" fill="none" xmlns="http://www.w3.org/2000/svg">
<path d="M16.45 0C17.0733 0 17.671 0.247588 18.1117 0.688299C18.5524 1.12901 18.8 1.72674 18.8 2.35V7.05C18.8 7.67326 18.5524 8.27099 18.1117 8.7117C17.671 9.15241 17.0733 9.4 16.45 9.4C15.8267 9.4 15.229 9.15241 14.7883 8.7117C14.3476 8.27099 14.1 7.67326 14.1 7.05V2.35C14.1 1.72674 14.3476 1.12901 14.7883 0.688299C15.229 0.247588 15.8267 0 16.45 0ZM7.05 14.1H2.35C1.72674 14.1 1.12901 14.3476 0.688299 14.7883C0.247588 15.229 0 15.8267 0 16.45C0 17.0733 0.247588 17.671 0.688299 18.1117C1.12901 18.5524 1.72674 18.8 2.35 18.8H7.05C7.67326 18.8 8.27099 18.5524 8.7117 18.1117C9.15241 17.671 9.4 17.0733 9.4 16.45C9.4 15.8267 9.15241 15.229 8.7117 14.7883C8.27099 14.3476 7.67326 14.1 7.05 14.1ZM35.25 25.85H47L35.25 14.1V25.85ZM32.9 14.1H16.45C15.8267 14.1 15.229 14.3476 14.7883 14.7883C14.3476 15.229 14.1 15.8267 14.1 16.45V44.65C14.1 45.2733 14.3476 45.871 14.7883 46.3117C15.229 46.7524 15.8267 47 16.45 47H44.65C45.2733 47 45.871 46.7524 46.3117 46.3117C46.7524 45.871 47 45.2733 47 44.65V28.2H32.9V14.1Z" fill="#46C8E8"/>
</svg>
