<svg width="59" height="59" viewBox="0 0 59 59" fill="none" xmlns="http://www.w3.org/2000/svg">
<path d="M6.55556 59C4.75278 59 3.20949 58.3581 1.92569 57.0743C0.641898 55.7905 0 54.2472 0 52.4444V6.55556C0 4.75278 0.641898 3.20949 1.92569 1.92569C3.20949 0.641898 4.75278 0 6.55556 0H36.0556V6.55556H6.55556V52.4444H52.4444V22.9444H59V52.4444C59 54.2472 58.3581 55.7905 57.0743 57.0743C55.7905 58.3581 54.2472 59 52.4444 59H6.55556ZM45.8889 19.6667V13.1111H39.3333V6.55556H45.8889V0H52.4444V6.55556H59V13.1111H52.4444V19.6667H45.8889ZM9.83333 45.8889H49.1667L36.875 29.5L27.0417 42.6111L19.6667 32.7778L9.83333 45.8889Z" fill="#BABABA"/>
</svg>
